<svg id="Layer_1" enable-background="new 0 0 512.058 512.058" height="512" viewBox="0 0 512.058 512.058" width="512" xmlns="http://www.w3.org/2000/svg"><g><path d="m440.024 24c0-13.234-10.766-24-24-24h-320c-13.234 0-24 10.766-24 24v464c0 13.234 10.766 24 24 24 273.922 0 256.756.336 259.051-.606 2.162-.892-2.703 3.571 82.602-81.734 1.111-1.11 1.901-2.591 2.198-4.134.216-1.119.149 16.548.149-401.526zm-352 464v-464c0-4.411 3.589-8 8-8h320c4.411 0 8 3.589 8 8v392h-56c-13.234 0-24 10.766-24 24v56h-248c-4.411 0-8-3.589-8-8zm272-3.313v-44.687c0-4.411 3.589-8 8-8h44.687z"/><path d="m250.368 197.657c3.125 3.125 8.189 3.124 11.313 0l55.007-55.007c7.31-7.31 11.336-17.029 11.336-27.367v-4.579c0-21.341-17.362-38.704-38.704-38.704-13.96 0-21.122 6.27-33.296 14.385-12.213-8.142-19.364-14.385-33.296-14.385-21.341 0-38.704 17.362-38.704 38.704v4.579c0 10.338 4.026 20.057 11.336 27.367zm-50.344-86.953c0-18.182 20.344-28.859 35.297-18.891l16.265 10.843c2.688 1.792 6.188 1.792 8.875 0l16.265-10.843c14.962-9.974 35.297.717 35.297 18.891 0 5.947.547 13.436-6.649 20.632l-49.351 49.351-49.351-49.351c-7.166-7.168-6.648-14.721-6.648-20.632z"/><path d="m176.024 352h216c4.418 0 8-3.582 8-8s-3.582-8-8-8h-216c-4.418 0-8 3.582-8 8s3.582 8 8 8z"/><path d="m176.024 312h216c4.418 0 8-3.582 8-8s-3.582-8-8-8h-216c-4.418 0-8 3.582-8 8s3.582 8 8 8z"/><path d="m176.024 272h216c4.418 0 8-3.582 8-8s-3.582-8-8-8h-216c-4.418 0-8 3.582-8 8s3.582 8 8 8z"/><path d="m344.024 384c0-4.418-3.582-8-8-8h-160c-4.418 0-8 3.582-8 8s3.582 8 8 8h160c4.419 0 8-3.582 8-8z"/><path d="m136.024 256h-16c-4.418 0-8 3.582-8 8s3.582 8 8 8h16c4.418 0 8-3.582 8-8s-3.581-8-8-8z"/><path d="m136.024 296h-16c-4.418 0-8 3.582-8 8s3.582 8 8 8h16c4.418 0 8-3.582 8-8s-3.581-8-8-8z"/><path d="m136.024 336h-16c-4.418 0-8 3.582-8 8s3.582 8 8 8h16c4.418 0 8-3.582 8-8s-3.581-8-8-8z"/><path d="m136.024 376h-16c-4.418 0-8 3.582-8 8s3.582 8 8 8h16c4.418 0 8-3.582 8-8s-3.581-8-8-8z"/></g></svg>