<?xml version="1.0" standalone="no"?>
<!DOCTYPE svg PUBLIC "-//W3C//DTD SVG 20010904//EN"
 "http://www.w3.org/TR/2001/REC-SVG-20010904/DTD/svg10.dtd">
<svg version="1.0" xmlns="http://www.w3.org/2000/svg"
 width="700.000000pt" height="700.000000pt" viewBox="0 0 700.000000 700.000000"
 preserveAspectRatio="xMidYMid meet">
<metadata>
Created by potrace 1.11, written by Peter Selinger 2001-2013
</metadata>
<g transform="translate(0.000000,700.000000) scale(0.100000,-0.100000)"
fill="#000000" stroke="none">
<path d="M3386 6984 c-125 -40 -220 -140 -255 -269 -15 -59 -59 -301 -66 -370
-4 -33 -8 -67 -10 -75 -2 -8 -7 -53 -11 -100 -3 -47 -8 -96 -9 -110 -2 -14 -4
-53 -4 -87 -1 -35 -4 -63 -8 -63 -5 0 -36 55 -70 123 -126 248 -305 541 -380
619 -37 38 -137 94 -188 103 -124 24 -258 -17 -346 -106 -76 -77 -112 -163
-110 -266 1 -115 96 -503 184 -755 37 -107 36 -107 -46 -31 -75 70 -267 222
-386 307 -226 160 -288 188 -409 181 -139 -7 -264 -93 -325 -224 -26 -55 -31
-77 -31 -146 -1 -56 5 -95 18 -130 19 -49 80 -156 118 -205 10 -14 52 -70 92
-125 81 -111 214 -274 283 -347 46 -49 45 -56 -4 -37 -75 29 -309 100 -443
134 -31 8 -157 36 -205 45 -27 6 -61 12 -75 15 -49 11 -156 6 -196 -9 -122
-43 -204 -124 -246 -244 -45 -129 -7 -291 91 -385 82 -79 355 -246 624 -382
71 -36 123 -67 115 -69 -7 -3 -65 -7 -128 -11 -63 -3 -130 -8 -150 -11 -229
-28 -300 -38 -385 -55 -184 -36 -271 -75 -333 -149 -136 -161 -117 -401 43
-543 73 -64 281 -116 610 -153 33 -3 69 -8 80 -10 11 -2 75 -7 143 -10 67 -4
122 -10 122 -13 0 -3 -62 -37 -138 -76 -194 -99 -420 -232 -537 -317 -166
-120 -219 -308 -138 -488 48 -108 178 -198 298 -208 62 -5 208 12 273 32 9 3
32 8 51 11 19 3 38 8 43 11 5 3 21 8 36 10 67 12 438 126 476 146 17 9 18 9 4
-11 -9 -12 -33 -41 -55 -64 -60 -64 -241 -291 -309 -387 -150 -213 -186 -293
-179 -403 6 -107 39 -180 112 -252 115 -114 279 -144 422 -78 76 35 332 216
471 332 30 25 66 55 79 66 14 11 45 38 70 60 81 72 80 71 61 17 -9 -26 -20
-54 -23 -62 -27 -67 -140 -478 -153 -555 -3 -16 -10 -63 -17 -104 -8 -44 -10
-98 -6 -133 14 -120 100 -238 214 -294 54 -26 69 -29 160 -29 113 1 165 18
241 80 82 67 256 343 396 627 40 81 75 147 78 147 3 1 7 -32 8 -71 1 -40 4
-84 7 -98 2 -14 7 -56 10 -95 20 -240 69 -511 111 -611 32 -78 100 -148 184
-188 59 -28 74 -31 160 -31 84 0 103 3 157 29 69 32 148 107 182 174 19 36 40
113 54 192 33 183 34 186 51 325 8 66 18 172 21 235 4 63 8 121 11 128 2 7 41
-61 87 -150 86 -167 108 -209 117 -218 3 -3 16 -25 29 -50 26 -47 130 -211
140 -220 4 -3 19 -24 35 -48 166 -244 534 -208 658 65 30 68 36 146 17 253 -9
52 -19 104 -22 115 -4 11 -9 34 -11 51 -12 67 -70 277 -117 420 -27 83 -49
154 -49 158 0 4 21 -13 48 -37 201 -190 566 -453 686 -495 90 -31 176 -26 268
16 145 67 232 212 223 370 -4 81 -30 141 -118 272 -98 147 -337 452 -407 520
-35 34 -28 37 37 13 117 -42 438 -136 513 -149 14 -3 33 -7 42 -10 10 -3 30
-7 45 -10 16 -3 52 -9 82 -14 78 -14 160 -12 217 5 179 53 296 252 259 440
-10 51 -51 131 -89 172 -69 77 -386 274 -637 396 -70 34 -128 65 -128 69 -1 5
2 7 7 6 9 -2 246 12 270 16 9 2 46 7 82 10 36 4 90 11 120 16 30 5 75 12 100
15 57 8 214 41 258 54 93 28 180 105 226 201 28 59 31 74 31 160 0 86 -3 101
-31 160 -53 110 -143 181 -269 214 -162 41 -548 92 -748 97 -31 1 -56 3 -55 4
2 1 75 39 163 85 160 82 364 199 440 252 22 16 63 44 91 62 167 110 221 313
132 493 -37 75 -98 134 -178 172 -82 39 -194 38 -370 0 -74 -17 -144 -32 -156
-34 -12 -3 -40 -11 -63 -20 -23 -8 -45 -15 -49 -15 -32 -3 -323 -95 -356 -112
-24 -13 -14 4 35 57 180 196 448 564 484 664 65 186 -21 389 -203 474 -59 27
-77 31 -152 31 -101 -1 -143 -15 -254 -86 -139 -88 -455 -332 -556 -429 -46
-44 -47 -39 -13 58 92 265 184 647 184 766 0 146 -94 282 -235 341 -127 53
-272 30 -383 -60 -82 -67 -254 -340 -408 -648 -36 -70 -67 -122 -69 -115 -2 8
-7 66 -11 129 -3 63 -8 129 -10 145 -2 17 -11 89 -20 160 -24 187 -69 393 -98
450 -35 70 -101 132 -177 168 -79 38 -194 47 -274 21z"/>
</g>
</svg>
